<svg width="866" height="782" viewBox="0 0 866 782" fill="none" xmlns="http://www.w3.org/2000/svg">
<path d="M866 530.396C866 716.197 511.448 781.063 329.481 781.063C147.514 781.063 0 630.442 0 444.642C0 258.842 147.514 108.221 329.481 108.221C511.448 108.221 681.224 -219.13 866 530.396Z" fill="#3C6E71"/>
<path d="M468 169.063C468 242.484 325.393 176.324 269.5 176.324C213.607 176.324 124 262.304 124 188.883C124 115.462 169.31 55.9423 225.203 55.9423C281.096 55.9423 411.244 -127.121 468 169.063Z" fill="#3C6E71" fill-opacity="0.3"/>
<path d="M849 414.563C849 487.984 658.393 151.324 602.5 151.324C546.607 151.324 457 237.304 457 163.883C457 90.4621 534.107 41.563 590 41.563C645.893 41.563 870 83.063 849 414.563Z" fill="#3C6E71" fill-opacity="0.8"/>
</svg>
