<svg width="2160" height="2160" viewBox="0 0 2160 2160" fill="none" xmlns="http://www.w3.org/2000/svg">
<path d="M650.121 582.803H579.687V316.467H677.313L740.982 451.749L804.652 316.467C829.766 316.819 883.389 317.312 896.972 316.467C910.555 315.621 908.998 316.115 906.522 316.467V582.803H836.486V422.156L764.328 555.324H724.004L650.121 421.64V582.803Z" fill="#5E24A1" stroke="#5E24A1"/>
<path d="M1207.89 582.803H976.559V316.467H1207.89V375.653H1050.84V422.156H1190.91V477.114H1050.84V523.617H1207.89V582.803Z" fill="#5E24A1" stroke="#5E24A1"/>
<path d="M1432.96 318.091L1463.73 324.432L1463.8 324.448L1463.87 324.485L1490.4 339.282L1490.42 339.291L1490.43 339.302L1503.17 347.757L1503.21 347.785L1503.24 347.819L1515.98 360.501L1516.02 360.543L1516.05 360.593L1533.03 388.073L1533.05 388.114L1533.07 388.159L1539.44 405.07L1539.45 405.096L1539.46 405.123L1541.58 413.579L1541.58 413.598L1541.59 413.619L1543.71 426.301L1543.71 426.342V470.814L1543.71 470.855L1541.59 483.538L1541.58 483.582L1541.56 483.624L1536.26 498.42L1536.25 498.44L1536.24 498.457L1526.69 519.595L1526.67 519.639L1526.65 519.677L1511.79 540.815L1511.76 540.862L1511.71 540.9L1490.49 559.924L1490.45 559.961L1490.4 559.989L1471.3 570.558L1471.27 570.576L1471.23 570.589L1454.25 576.93L1454.21 576.945L1454.18 576.953L1432.95 581.18L1432.92 581.184L1418.07 583.298L1418.03 583.303H1264.69V318.081H1432.91L1432.96 318.091ZM1336.85 377.266V522.003H1407.46L1407.52 521.984L1422.38 517.756L1422.42 517.744L1422.47 517.723L1439.44 509.268L1439.5 509.241L1439.55 509.201L1454.4 496.518L1454.46 496.468L1454.5 496.404L1465.11 479.494L1465.15 479.426L1465.17 479.349L1469.42 462.439L1469.43 462.379V434.756L1469.41 434.679L1465.16 421.997L1465.15 421.963L1465.14 421.931L1460.89 413.476L1460.87 413.436L1460.84 413.4L1448.11 396.49L1448.05 396.412L1447.97 396.361L1426.74 383.678L1426.69 383.645L1426.62 383.626L1411.77 379.399L1411.73 379.387L1411.68 379.382L1390.46 377.269L1390.43 377.266H1336.85Z" fill="#5E24A1"/>
<path d="M1624.36 631.465L1530.98 1671.45L1530.95 1671.76L1530.65 1671.87L1067.99 1840.97L1067.91 1841H1057.12L1057.04 1840.97L585.888 1673.99L585.586 1673.88L585.557 1673.56L490.053 631.466L490.003 630.92H1624.41L1624.36 631.465ZM696.294 823.289L687.805 825.404L687.786 825.407L687.768 825.414L681.401 827.528L681.338 827.549L681.282 827.585L674.915 831.814L668.548 836.041L668.487 836.081L668.441 836.137L657.83 848.82L657.812 848.84L657.798 848.862L653.553 855.203L653.535 855.229L653.521 855.257L649.277 863.712L649.261 863.744L649.25 863.778L647.127 870.119L647.102 870.196V912.57L647.103 912.586L681.06 1433.63L681.061 1433.65L681.062 1433.67L683.186 1449.52L683.193 1449.58L683.217 1449.64L687.461 1460.21L689.573 1466.52L689.595 1466.59L689.632 1466.64L693.859 1472.96L695.968 1477.16L696.011 1477.24L696.083 1477.31L715.184 1494.22L715.249 1494.28L715.33 1494.31L725.941 1498.54L725.984 1498.55L726.029 1498.56L736.641 1500.67L736.689 1500.68H845.012L845.047 1500.68L859.902 1498.57L859.937 1498.56L859.969 1498.55L874.825 1494.32L874.889 1494.31L874.945 1494.27L885.557 1487.93L885.609 1487.9L885.652 1487.86L894.142 1479.4L894.189 1479.35L894.223 1479.3L902.712 1464.5L902.737 1464.46L902.753 1464.41L904.875 1458.07L904.881 1458.05L904.886 1458.03L907.008 1449.58L907.023 1449.51V1449.45L904.9 1293.03L904.894 1292.53H825.375V1392.24L820.233 1400.43L815.17 1402.45H785.669L777.358 1398.31L771.106 1392.09L766.944 1383.8L745.728 961.146V935.924L747.782 931.829L751.914 925.655L758.043 923.622H796.012L802.21 927.737L806.323 931.834L808.399 940.106L812.643 1020.38L812.667 1020.86H896.419L896.411 1020.35L894.289 885.067V885.034L894.284 885.003L892.162 870.207L892.158 870.181L892.152 870.156L890.029 861.701L890.021 861.668L890.009 861.636L887.887 856.352L887.867 856.304L887.838 856.26L877.227 840.406L877.198 840.365L877.164 840.33L868.675 831.875L868.649 831.851L868.621 831.829L860.132 825.487L860.051 825.428L859.953 825.404L851.464 823.289L851.404 823.275H696.354L696.294 823.289ZM1244.98 824.329L1244.93 824.339L1234.32 826.452L1234.26 826.466L1234.2 826.495L1225.71 830.723L1225.65 830.752L1225.6 830.796L1206.5 847.706L1206.44 847.757L1206.4 847.822L1200.03 858.392L1200.01 858.439L1199.99 858.491L1195.74 871.174L1195.72 871.258L1195.72 871.348L1202.08 1084.84L1202.09 1084.88L1202.09 1084.92L1204.22 1095.49L1204.23 1095.58L1204.28 1095.65L1210.65 1106.22L1210.68 1106.27L1210.72 1106.32L1354.89 1249.91V1389.09L1350.75 1397.33L1342.49 1403.51H1308.78L1296.24 1399.34L1292.22 1395.34V1293.59H1208.45V1430.46L1208.46 1430.49L1210.58 1448.45L1210.58 1448.5L1210.6 1448.55L1214.84 1461.24L1214.86 1461.27L1214.87 1461.3L1219.12 1469.76L1219.15 1469.82L1219.19 1469.87L1238.29 1491.01L1238.34 1491.06L1238.41 1491.1L1249.02 1497.44L1249.08 1497.48L1249.15 1497.5L1257.64 1499.61L1257.7 1499.63H1366.03L1366.05 1499.62L1389.39 1497.51L1389.46 1497.5L1389.53 1497.48L1400.14 1493.25L1400.18 1493.23L1400.22 1493.21L1410.83 1486.87L1410.88 1486.84L1410.92 1486.8L1421.54 1476.23L1421.58 1476.18L1421.61 1476.13L1427.98 1465.56L1428 1465.53L1428.01 1465.49L1432.26 1454.92L1432.28 1454.88L1432.28 1454.83L1434.41 1444.27L1434.42 1444.22L1434.42 1444.18L1438.66 1196.86L1438.66 1196.78L1438.63 1196.7L1434.39 1184.01L1434.38 1183.98L1434.36 1183.95L1430.12 1175.49L1430.08 1175.41L1430.02 1175.35L1287.98 1040.22V936.979L1292.11 928.748L1298.24 924.677H1342.54L1350.85 928.815L1354.9 932.844L1357.01 1019.31L1357.03 1019.8H1436.53L1436.54 1019.3L1438.66 867.112L1438.66 867.046L1438.65 866.984L1436.52 858.529L1436.51 858.475L1436.49 858.425L1430.12 845.742L1430.08 845.67L1430.02 845.612L1417.29 832.93L1417.25 832.887L1417.19 832.856L1406.58 826.514L1406.52 826.476L1406.45 826.458L1397.96 824.344L1397.9 824.329H1244.98ZM978.584 823.284L967.972 825.398L967.906 825.411L967.847 825.441L959.357 829.668L959.299 829.697L959.249 829.741L940.148 846.652L940.091 846.702L940.052 846.768L933.685 857.337L933.656 857.384L933.639 857.437L929.394 870.119L929.366 870.203L929.368 870.293L935.735 1083.78L935.736 1083.83L935.745 1083.87L937.867 1094.44L937.885 1094.52L937.929 1094.6L944.296 1105.17L944.328 1105.22L944.371 1105.26L1088.54 1248.85V1388.04L1084.4 1396.28L1076.14 1402.45H1042.43L1029.89 1398.29L1025.87 1394.29V1292.53H942.102V1429.4L942.105 1429.43L944.228 1447.4L944.233 1447.45L944.25 1447.5L948.495 1460.18L948.506 1460.22L948.522 1460.25L952.767 1468.7L952.797 1468.76L952.843 1468.81L971.943 1489.95L971.993 1490.01L972.058 1490.05L982.669 1496.39L982.733 1496.42L982.805 1496.44L991.294 1498.56L991.354 1498.57H1099.68L1099.7 1498.57L1123.04 1496.46L1123.12 1496.45L1123.18 1496.42L1133.79 1492.19L1133.83 1492.18L1133.87 1492.16L1144.48 1485.82L1144.53 1485.79L1144.57 1485.74L1155.19 1475.17L1155.23 1475.13L1155.26 1475.08L1161.63 1464.51L1161.65 1464.47L1161.66 1464.44L1165.91 1453.87L1165.93 1453.83L1165.93 1453.78L1168.06 1443.21L1168.07 1443.17L1168.07 1443.12L1172.31 1195.81L1172.31 1195.72L1172.29 1195.64L1168.04 1182.96L1168.03 1182.92L1168.01 1182.89L1163.77 1174.44L1163.73 1174.36L1163.67 1174.3L1021.63 1039.17V935.924L1025.76 927.694L1031.89 923.622H1076.19L1084.5 927.76L1088.55 931.789L1090.66 1018.26L1090.68 1018.74H1170.18L1170.19 1018.25L1172.31 866.057L1172.31 865.991L1172.3 865.929L1170.17 857.474L1170.16 857.42L1170.14 857.37L1163.77 844.688L1163.73 844.615L1163.67 844.558L1150.94 831.875L1150.9 831.832L1150.84 831.801L1140.23 825.459L1140.17 825.421L1140.1 825.404L1131.61 823.289L1131.55 823.275H978.632L978.584 823.284Z" fill="#5E24A1"/>
<path d="M1539.47 716.014L1460.94 1616.49L1460.92 1616.81L1460.61 1616.91L1065.86 1756.42L1065.2 1756.66V1498.57H1099.68L1099.7 1498.57L1123.04 1496.45L1123.11 1496.45L1123.18 1496.42L1133.79 1492.19L1133.83 1492.18L1133.87 1492.16L1144.48 1485.82L1144.53 1485.78L1144.57 1485.74L1155.19 1475.17L1155.23 1475.13L1155.26 1475.07L1161.63 1464.51L1161.65 1464.47L1161.66 1464.43L1165.91 1453.86L1165.93 1453.82L1165.93 1453.78L1168.06 1443.21L1168.06 1443.16L1168.07 1443.12L1172.31 1195.81L1172.31 1195.72L1172.28 1195.64L1168.04 1182.96L1168.03 1182.92L1168.01 1182.89L1163.77 1174.44L1163.73 1174.36L1163.67 1174.3L1065.2 1080.61V923.62H1076.19L1084.5 927.757L1088.55 931.787L1090.66 1018.25L1090.68 1018.74H1170.18L1170.19 1018.25L1172.31 866.054L1172.31 865.989L1172.3 865.926L1170.17 857.471L1170.16 857.418L1170.14 857.368L1163.77 844.685L1163.73 844.613L1163.67 844.555L1150.94 831.873L1150.9 831.83L1150.84 831.798L1140.23 825.457L1140.17 825.419L1140.1 825.401L1131.61 823.287L1131.55 823.272H1065.2V715.471H1539.52L1539.47 716.014ZM1244.98 824.331L1244.93 824.34L1234.32 826.454L1234.26 826.467L1234.2 826.497L1225.71 830.724L1225.65 830.754L1225.6 830.797L1206.5 847.708L1206.44 847.758L1206.4 847.824L1200.03 858.393L1200.01 858.44L1199.99 858.493L1195.74 871.175L1195.72 871.259L1195.72 871.349L1202.09 1084.84L1202.09 1084.88L1202.1 1084.92L1204.22 1095.49L1204.23 1095.58L1204.28 1095.65L1210.65 1106.22L1210.68 1106.27L1210.72 1106.32L1354.89 1249.91V1389.09L1350.75 1397.33L1342.49 1403.51H1308.78L1296.24 1399.34L1292.22 1395.34V1293.59H1208.45V1430.46L1208.46 1430.49L1210.58 1448.45L1210.58 1448.51L1210.6 1448.55L1214.85 1461.24L1214.86 1461.27L1214.87 1461.3L1219.12 1469.76L1219.15 1469.82L1219.19 1469.87L1238.29 1491.01L1238.34 1491.06L1238.41 1491.1L1249.02 1497.44L1249.08 1497.48L1249.15 1497.5L1257.64 1499.61L1257.7 1499.63H1366.03L1366.05 1499.62L1389.39 1497.51L1389.47 1497.5L1389.53 1497.48L1400.15 1493.25L1400.18 1493.23L1400.22 1493.21L1410.83 1486.87L1410.88 1486.84L1410.92 1486.8L1421.54 1476.23L1421.58 1476.19L1421.61 1476.13L1427.98 1465.56L1428 1465.53L1428.01 1465.49L1432.26 1454.92L1432.28 1454.88L1432.28 1454.84L1434.41 1444.27L1434.42 1444.22L1434.42 1444.18L1438.66 1196.86L1438.66 1196.78L1438.64 1196.7L1434.39 1184.02L1434.38 1183.98L1434.36 1183.95L1430.12 1175.49L1430.08 1175.42L1430.02 1175.36L1287.98 1040.22V936.98L1292.11 928.75L1298.24 924.678H1342.54L1350.85 928.816L1354.9 932.845L1357.01 1019.31L1357.03 1019.8H1436.53L1436.54 1019.31L1438.66 867.113L1438.66 867.047L1438.65 866.985L1436.52 858.53L1436.51 858.476L1436.49 858.426L1430.12 845.744L1430.08 845.672L1430.02 845.614L1417.29 832.931L1417.25 832.888L1417.19 832.857L1406.58 826.515L1406.52 826.477L1406.45 826.46L1397.96 824.345L1397.9 824.331H1244.98ZM1088.54 1248.85V1388.03L1084.4 1396.28L1076.14 1402.45H1065.2V1225.6L1088.54 1248.85Z" fill="#7936BC"/>
</svg>
